<svg width="301" height="126" viewBox="0 0 301 126" fill="none" xmlns="http://www.w3.org/2000/svg">
<path d="M219.752 31.545C230.942 62.734 242.133 93.5152 253.323 124.704C243.998 124.704 235.045 124.704 225.72 124.704C228.331 119.2 230.756 113.9 233.367 108.192C215.462 108.192 197.93 108.192 180.026 108.192C182.637 113.696 185.248 118.996 188.045 124.704C178.72 124.704 169.768 124.704 160.442 124.704C171.633 93.5152 182.823 62.5301 194.2 31.545C202.593 31.545 211.172 31.545 219.752 31.545ZM220.498 95.7575C216.022 82.3035 211.732 69.2571 207.069 55.5992C201.474 72.9264 196.065 89.6421 190.47 106.765C200.728 102.892 210.426 99.4268 220.498 95.7575Z" fill="#193247"/>
<path d="M169.022 76.1891C169.022 92.0893 165.291 104.32 156.152 114.309C141.791 129.801 118.664 128.986 105.236 112.27C96.4698 101.67 93.4857 89.0316 94.2317 74.966C94.7912 63.7543 97.7754 53.5619 104.676 45.0002C119.783 25.6345 145.895 26.2461 160.069 46.631C166.41 56.008 169.022 66.6082 169.022 76.1891ZM160.815 78.4314C161.002 70.4813 159.323 62.9389 155.593 56.2119C144.589 35.6231 120.902 36.2347 109.712 52.7465C99.6404 67.4236 100.013 91.2739 110.831 105.34C121.462 118.997 139.553 119.609 150.93 106.97C158.018 99.0202 160.629 89.2354 160.815 78.4314Z" fill="black"/>
<path d="M295.847 38.8842C286.708 38.8842 277.756 38.8842 268.617 38.8842C268.617 39.6996 268.617 40.3111 268.617 41.1265C268.617 59.0653 268.617 76.8001 268.617 94.7388C268.617 99.2235 268.803 103.912 269.736 108.397C270.482 112.066 272.347 114.104 275.704 114.92C282.791 116.755 289.506 115.531 296.22 113.085C297.712 112.474 299.204 111.862 300.883 111.251C300.883 114.512 300.883 117.366 300.883 120.424C293.236 123.889 285.403 125.928 277.196 124.908C273.653 124.501 270.295 123.482 267.311 121.647C261.343 117.978 258.359 112.678 258.359 105.135C258.359 83.9348 258.359 62.7345 258.359 41.5342C258.359 40.7188 258.359 39.9034 258.359 38.6803C249.78 38.6803 241.2 38.6803 232.061 38.6803C235.045 35.8265 237.657 33.1764 240.454 30.7302C246.236 30.7302 252.204 30.7302 258.359 30.7302C258.359 23.1878 258.359 16.0531 258.359 8.71454C260.784 5.86065 263.022 3.00677 265.446 0.152887C266.565 -0.0509623 267.498 -0.0509623 268.803 0.152887C268.803 10.3453 268.803 20.3339 268.803 30.7302C278.129 30.7302 287.081 30.7302 296.034 30.7302C295.847 33.5841 295.847 36.2342 295.847 38.8842Z" fill="black"/>
<path d="M69.3562 96.0905C69.3562 90.2368 66.9884 85.5341 62.2529 81.9825C57.5831 78.4308 50.5126 75.6684 41.0415 73.6952C31.5704 71.6563 24.204 69.3543 18.9422 66.7892C13.7463 64.1583 9.86575 60.9684 7.30066 57.2194C4.80133 53.4704 3.55167 48.9322 3.55167 43.6047C3.55167 35.1859 7.07045 28.247 14.108 22.788C21.1456 17.2631 30.1563 14.5007 41.1402 14.5007C53.0448 14.5007 62.5817 17.4605 69.7509 23.3799C76.9857 29.2336 80.6032 36.896 80.6032 46.3671H68.7643C68.7643 40.1188 66.1334 34.9228 60.8717 30.7792C55.6757 26.6356 49.0985 24.5638 41.1402 24.5638C33.3791 24.5638 27.1308 26.3067 22.3953 29.7926C17.7255 33.2128 15.3906 37.6852 15.3906 43.2101C15.3906 48.5376 17.3308 52.6812 21.2114 55.6409C25.1577 58.5349 32.2939 61.1986 42.62 63.6322C53.012 66.0657 60.773 68.6637 65.9032 71.4261C71.0992 74.1885 74.9468 77.51 77.4461 81.3905C79.9455 85.271 81.1951 89.9737 81.1951 95.4985C81.1951 104.509 77.5448 111.711 70.2441 117.105C63.0093 122.498 53.5381 125.194 41.8308 125.194C29.3999 125.194 19.304 122.202 11.5429 116.217C3.84764 110.166 0 102.536 0 93.3281H11.8389C12.2993 100.234 15.1933 105.627 20.5208 109.508C25.914 113.323 33.0174 115.23 41.8308 115.23C50.0522 115.23 56.6952 113.421 61.7596 109.804C66.824 106.186 69.3562 101.615 69.3562 96.0905Z" fill="black"/>
</svg>
